<?xml version="1.0" encoding="utf-8"?>
<!-- Generator: Adobe Illustrator 27.8.0, SVG Export Plug-In . SVG Version: 6.00 Build 0)  -->
<svg version="1.1" id="Layer_1" xmlns="http://www.w3.org/2000/svg" xmlns:xlink="http://www.w3.org/1999/xlink" x="0px" y="0px"
	 viewBox="0 0 207 60" style="enable-background:new 0 0 207 60;" xml:space="preserve">
<style type="text/css">
	.st0{fill:#6F5BB2;}
	.st1{fill:#007ABE;}
</style>
<g>
	<g>
		<path class="st0" d="M14.1,40.4c-2-3-3.1-6.6-3.1-10.4c0-7.4,4.3-13.8,10.4-16.9c0.1-0.4,0.2-0.8,0.3-1.2C14.8,15,10,21.9,10,30
			c0,4.3,1.4,8.3,3.7,11.6C13.9,41.2,14,40.8,14.1,40.4z"/>
		<path class="st0" d="M27.8,11.1c0.7-0.1,1.4-0.1,2.2-0.1c4.2,0,8.1,1.4,11.3,3.8c0.2-0.3,0.4-0.6,0.6-0.8c-3.3-2.5-7.4-4-11.9-4
			c-0.8,0-1.6,0.1-2.3,0.1C27.8,10.5,27.8,10.8,27.8,11.1z"/>
		<path class="st0" d="M46.3,18.4c-0.1,0.4-0.3,0.8-0.4,1.2c2,3,3.1,6.6,3.1,10.4c0,7.4-4.3,13.8-10.5,16.9
			c-0.1,0.4-0.2,0.8-0.3,1.2C45.2,45,50,38.1,50,30C50,25.7,48.6,21.7,46.3,18.4z"/>
		<path class="st0" d="M32.2,48.9C31.4,48.9,30.7,49,30,49c-4.2,0-8.1-1.4-11.3-3.8c-0.2,0.3-0.4,0.6-0.6,0.8c3.3,2.5,7.4,4,11.9,4
			c0.8,0,1.6-0.1,2.3-0.1C32.2,49.5,32.2,49.2,32.2,48.9z"/>
	</g>
	<path class="st1" d="M15.4,42.9c1-3.7,2.6-6.5,4.9-8.2c2.2-1.7,5-3.4,8.3-5c-2.1-3.1-3.6-5.9-4.7-8.5c-1.1-2.6-1.1-5.8-0.1-9.5
		l0.2-0.7c0.1-0.3,0.2-0.5,0.4-0.6c0.2-0.1,0.5-0.2,0.7-0.1c0.3,0.1,0.5,0.2,0.6,0.4c0.1,0.2,0.2,0.5,0.1,0.7l-0.2,0.7
		c-0.1,0.4-0.2,0.8-0.3,1.2c-0.1,0.4-0.1,0.8-0.2,1.1L42,18.9c0.2-0.3,0.3-0.7,0.4-1.1c0.1-0.4,0.2-0.8,0.4-1.2l0.2-0.7
		c0.1-0.3,0.2-0.5,0.4-0.6c0.2-0.1,0.5-0.2,0.7-0.1c0.3,0.1,0.5,0.2,0.6,0.4c0.1,0.2,0.2,0.5,0.1,0.7l-0.2,0.7
		c-1,3.7-2.6,6.5-4.9,8.2c-2.2,1.7-5,3.4-8.3,5c2.1,3.1,3.6,5.9,4.7,8.5c1.1,2.6,1.1,5.8,0.1,9.5L36,49.1c-0.1,0.3-0.2,0.5-0.4,0.6
		c-0.2,0.1-0.5,0.2-0.7,0.1c-0.3-0.1-0.5-0.2-0.6-0.4c-0.1-0.2-0.2-0.5-0.1-0.7l0.2-0.7c0.1-0.4,0.2-0.8,0.3-1.2s0.1-0.8,0.2-1.1
		L18,41.1c-0.2,0.3-0.3,0.7-0.4,1.1c-0.1,0.4-0.2,0.8-0.4,1.2L17.1,44c-0.1,0.3-0.2,0.5-0.4,0.6c-0.2,0.1-0.5,0.2-0.7,0.1
		c-0.3-0.1-0.5-0.2-0.6-0.4c-0.1-0.2-0.2-0.5-0.1-0.7C15.3,43.6,15.4,42.9,15.4,42.9z M26,21.2l11.9,3.2c0.7-0.5,1.3-1.1,1.8-1.7
		c0.5-0.6,1-1.3,1.5-2.1L25,16.3c0,0.9,0.1,1.7,0.2,2.6C25.4,19.6,25.7,20.4,26,21.2z M30.3,28.8c1-0.5,2-1,3-1.5
		c0.9-0.5,1.8-1,2.6-1.5L27,23.4c0.4,0.9,1,1.7,1.5,2.6C29,26.9,29.7,27.9,30.3,28.8z M24.1,34.2l8.9,2.4c-0.5-0.9-1-1.7-1.5-2.6
		c-0.6-0.9-1.2-1.8-1.8-2.8c-1,0.5-2,1-3,1.5C25.8,33.1,24.9,33.6,24.1,34.2z M18.8,39.4L35,43.7c0-0.9-0.1-1.8-0.3-2.6
		c-0.2-0.8-0.4-1.6-0.7-2.4l-11.9-3.2c-0.7,0.5-1.3,1.1-1.8,1.7C19.8,37.9,19.3,38.6,18.8,39.4z"/>
	<g>
		<g>
			<path class="st0" d="M63.1,15.4l-6.4,20.2h3.5l1.4-4.4h7.9l1.4,4.4h3.5l-6.4-20.2H63.1z M62.6,28l3-9.4l3,9.4H62.6z"/>
			<path class="st0" d="M81.5,19c0.9-0.6,2-0.9,3.4-0.9c1.5,0,2.7,0.4,3.7,1.1c0.9,0.7,1.6,1.8,2,3.1l3.4-0.9
				c-0.6-2-1.7-3.5-3.3-4.7s-3.5-1.7-5.8-1.7c-2,0-3.7,0.4-5.2,1.3c-1.4,0.9-2.5,2.1-3.3,3.7s-1.2,3.4-1.2,5.5
				c0,2.1,0.4,3.9,1.2,5.5s1.9,2.8,3.3,3.7c1.4,0.9,3.2,1.3,5.2,1.3c2.3,0,4.3-0.6,5.8-1.7c1.5-1.2,2.6-2.7,3.3-4.7l-3.4-0.9
				c-0.4,1.3-1.1,2.3-2,3.1c-0.9,0.7-2.2,1.1-3.7,1.1c-1.4,0-2.5-0.3-3.4-0.9c-0.9-0.6-1.6-1.5-2-2.6c-0.5-1.1-0.7-2.4-0.7-3.9
				c0-1.5,0.2-2.8,0.7-3.9C80,20.5,80.6,19.6,81.5,19z"/>
			<polygon class="st0" points="107.1,29.6 100.1,15.4 97.1,15.4 97.1,35.5 100.2,35.5 100.2,22.6 106.4,35.5 107.8,35.5 
				113.9,22.6 113.9,35.5 117.1,35.5 117.1,15.4 114.1,15.4 			"/>
			<polygon class="st0" points="121,35.5 134,35.5 134,32.4 124.4,32.4 124.4,26.7 132.3,26.7 132.3,23.5 124.4,23.5 124.4,18.5 
				134,18.5 134,15.4 121,15.4 			"/>
			<path class="st0" d="M141.9,18.3c1-0.7,2.2-1,3.8-1c1.7,0,3.1,0.4,4.1,1.3s1.8,2.1,2.2,3.6l2.5-0.7c-0.6-2-1.6-3.6-3.1-4.8
				c-1.5-1.2-3.4-1.8-5.8-1.8c-2,0-3.7,0.4-5.1,1.3c-1.4,0.9-2.5,2.1-3.2,3.7c-0.7,1.6-1.1,3.4-1.1,5.5c0,2.1,0.4,3.9,1.1,5.5
				c0.7,1.6,1.8,2.8,3.2,3.7c1.4,0.9,3.1,1.3,5.1,1.3c2.3,0,4.3-0.6,5.8-1.8c1.5-1.2,2.5-2.8,3.1-4.8l-2.5-0.7
				c-0.4,1.5-1.1,2.7-2.2,3.5c-1.1,0.9-2.4,1.3-4.1,1.3c-1.5,0-2.8-0.3-3.8-1c-1-0.7-1.8-1.6-2.3-2.9c-0.5-1.2-0.8-2.6-0.7-4.2
				c0-1.6,0.3-3,0.8-4.2C140.2,20,140.9,19,141.9,18.3z"/>
			<path class="st0" d="M169.3,22.9c-0.4-1-1.1-1.7-2.1-2.2c-1-0.5-2.2-0.7-3.5-0.7c-1.7,0-3.1,0.4-4.1,1.1c-1,0.8-1.8,1.8-2.1,3.1
				l2.4,0.7c0.3-0.9,0.8-1.6,1.4-2c0.7-0.4,1.5-0.6,2.4-0.6c1.4,0,2.4,0.3,2.9,1c0.5,0.6,0.8,1.5,0.8,2.6c-0.5,0.1-1.1,0.1-1.7,0.2
				c-0.9,0.1-1.8,0.3-2.7,0.4c-0.9,0.1-1.7,0.3-2.4,0.5c-0.8,0.2-1.4,0.5-2,0.9c-0.6,0.4-1,0.9-1.3,1.5c-0.3,0.6-0.5,1.3-0.5,2.1
				c0,0.8,0.2,1.6,0.6,2.2c0.4,0.7,1,1.2,1.7,1.6s1.7,0.6,2.8,0.6c1.5,0,2.7-0.3,3.7-0.9c0.7-0.5,1.4-1.1,1.9-1.8v2.4h2.2v-9.4
				c0-0.6,0-1.2-0.1-1.7C169.6,23.9,169.5,23.4,169.3,22.9z M167,30.4c-0.1,0.6-0.4,1.2-0.8,1.7s-0.9,1-1.6,1.3
				c-0.7,0.3-1.4,0.5-2.3,0.5c-0.7,0-1.3-0.1-1.7-0.3s-0.8-0.5-1-0.9c-0.2-0.4-0.3-0.8-0.3-1.2c0-0.5,0.1-0.9,0.3-1.2
				c0.2-0.3,0.5-0.6,0.9-0.8c0.4-0.2,0.7-0.4,1.2-0.5c0.6-0.2,1.2-0.3,1.9-0.4s1.4-0.2,2.2-0.3c0.5-0.1,1-0.1,1.5-0.2
				c0,0.2,0,0.5,0,0.8C167.2,29.4,167.2,29.9,167,30.4z"/>
			<path class="st0" d="M178.2,20.6c-0.5,0.2-0.9,0.4-1.3,0.7c-0.4,0.3-0.7,0.6-1,1c-0.1,0.2-0.2,0.3-0.3,0.5v-2.4h-2.2v15.1h2.5
				v-7.6c0-0.6,0.1-1.2,0.2-1.8c0.1-0.6,0.3-1.1,0.6-1.6c0.3-0.5,0.6-0.9,1.1-1.3c0.5-0.4,1.1-0.6,1.7-0.7c0.6-0.1,1.2,0,1.7,0.1
				v-2.3c-0.4-0.1-0.9-0.1-1.4-0.1C179.2,20.3,178.7,20.4,178.2,20.6z"/>
			<path class="st0" d="M192.6,32.9c-0.7,0.5-1.6,0.7-2.6,0.7c-1.5,0-2.6-0.5-3.4-1.5c-0.7-0.8-1.1-2-1.2-3.4h9.1h1.2h1.3
				c0.1-1.8-0.2-3.3-0.7-4.6c-0.5-1.3-1.3-2.3-2.4-3c-1.1-0.7-2.4-1-3.9-1c-1.5,0-2.7,0.3-3.8,1c-1.1,0.7-1.9,1.6-2.5,2.8
				c-0.6,1.2-0.9,2.6-0.9,4.3c0,1.6,0.3,3,0.9,4.1c0.6,1.2,1.5,2.1,2.6,2.8c1.1,0.7,2.4,1,3.9,1c1.5,0,2.8-0.4,4-1.1
				c1.2-0.7,2.1-1.8,2.7-3.1l-2.4-0.8C193.9,31.8,193.3,32.4,192.6,32.9z M186.6,23.7c0.8-1,2-1.5,3.5-1.5c1.4,0,2.5,0.5,3.2,1.4
				c0.6,0.7,0.9,1.8,1.1,3.1h-9C185.6,25.4,186,24.4,186.6,23.7z"/>
		</g>
	</g>
	<g>
		<polygon class="st1" points="56.8,40.4 58.6,40.4 58.6,45 59.1,45 59.1,40.4 60.9,40.4 60.9,39.9 56.8,39.9 		"/>
		<path class="st1" d="M64.2,39.9l-1.7,5H63l0.4-1.2h2.2l0.4,1.2h0.5l-1.7-5H64.2z M63.6,43.3l0.9-2.8l1,2.8H63.6z"/>
		<polygon class="st1" points="72.3,39.9 71.6,39.9 69.3,42.3 69.3,39.9 68.8,39.9 68.8,45 69.3,45 69.3,42.4 71.8,45 72.5,45 
			69.9,42.3 		"/>
		<polygon class="st1" points="74.5,45 77.7,45 77.7,44.5 75,44.5 75,42.6 77.2,42.6 77.2,42.2 75,42.2 75,40.4 77.7,40.4 
			77.7,39.9 74.5,39.9 		"/>
		<path class="st1" d="M84,40.6c0.3-0.2,0.6-0.3,1-0.3c0.5,0,0.8,0.1,1.1,0.3s0.5,0.5,0.6,0.9l0.5-0.1c-0.1-0.5-0.4-0.9-0.8-1.2
			c-0.4-0.3-0.8-0.4-1.4-0.4c-0.5,0-0.9,0.1-1.3,0.3c-0.3,0.2-0.6,0.5-0.8,0.9s-0.3,0.8-0.3,1.4c0,0.5,0.1,1,0.3,1.4
			c0.2,0.4,0.4,0.7,0.8,0.9c0.3,0.2,0.8,0.3,1.3,0.3c0.6,0,1.1-0.2,1.4-0.5c0.4-0.3,0.6-0.7,0.8-1.2l-0.5-0.1
			c-0.1,0.4-0.3,0.7-0.6,0.9s-0.6,0.4-1.1,0.4c-0.4,0-0.7-0.1-1-0.3c-0.3-0.2-0.5-0.4-0.6-0.8c-0.1-0.3-0.2-0.7-0.2-1.1
			c0-0.4,0.1-0.8,0.2-1.1C83.6,41,83.8,40.8,84,40.6z"/>
		<polygon class="st1" points="92.8,42.2 90,42.2 90,39.9 89.5,39.9 89.5,45 90,45 90,42.7 92.8,42.7 92.8,45 93.3,45 93.3,39.9 
			92.8,39.9 		"/>
		<path class="st1" d="M97.2,39.9l-1.7,5H96l0.4-1.2h2.2l0.4,1.2h0.5l-1.7-5H97.2z M96.6,43.3l0.9-2.8l1,2.8H96.6z"/>
		<path class="st1" d="M105.1,42.5c0.2-0.3,0.3-0.6,0.3-1c0-0.3,0-0.5-0.1-0.7c-0.1-0.2-0.2-0.4-0.4-0.5s-0.4-0.2-0.7-0.3
			c-0.1,0-0.1,0-0.2,0c-0.1,0-0.1,0-0.2,0h-1.9v5h0.5V43h1.6l0.9,1.9h0.6l-1-2.1C104.7,42.8,104.9,42.7,105.1,42.5z M102.3,42.6
			v-2.1h1.4c0,0,0.1,0,0.1,0c0.1,0,0.1,0,0.2,0c0.2,0,0.3,0.1,0.4,0.2c0.1,0.1,0.2,0.2,0.2,0.4s0.1,0.3,0.1,0.5s0,0.3-0.1,0.5
			c-0.1,0.1-0.1,0.3-0.2,0.4c-0.1,0.1-0.3,0.2-0.4,0.2c-0.1,0-0.1,0-0.2,0c-0.1,0-0.1,0-0.1,0H102.3z"/>
		<path class="st1" d="M112,42.4h-1.7v0.4h1.2c0,0.4-0.1,0.7-0.2,0.9c-0.1,0.3-0.3,0.5-0.5,0.6c-0.2,0.1-0.5,0.2-0.9,0.2
			c-0.4,0-0.7-0.1-1-0.3s-0.5-0.4-0.6-0.7s-0.2-0.7-0.2-1.1c0-0.4,0.1-0.8,0.2-1.1c0.1-0.3,0.3-0.6,0.6-0.7c0.3-0.2,0.6-0.3,1-0.3
			c0.4,0,0.7,0.1,0.9,0.3s0.4,0.4,0.5,0.7l0.5-0.1c-0.1-0.4-0.4-0.8-0.7-1c-0.3-0.2-0.8-0.4-1.3-0.4c-0.5,0-0.9,0.1-1.2,0.3
			c-0.3,0.2-0.6,0.5-0.8,0.9c-0.2,0.4-0.3,0.9-0.3,1.4c0,0.4,0.1,0.8,0.2,1.1c0.1,0.3,0.3,0.6,0.5,0.8c0.2,0.2,0.4,0.4,0.7,0.5
			c0.3,0.1,0.6,0.2,1,0.2c0.5,0,0.9-0.1,1.2-0.3c0.3-0.2,0.6-0.5,0.7-0.8c0.2-0.4,0.2-0.8,0.2-1.2c0,0,0-0.1,0-0.1
			C112,42.5,112,42.4,112,42.4z"/>
		<polygon class="st1" points="114.3,45 117.4,45 117.4,44.5 114.8,44.5 114.8,42.6 117,42.6 117,42.2 114.8,42.2 114.8,40.4 
			117.4,40.4 117.4,39.9 114.3,39.9 		"/>
		<path class="st1" d="M126,40.1c-0.3-0.2-0.8-0.3-1.3-0.3c-0.5,0-0.9,0.1-1.3,0.3c-0.3,0.2-0.6,0.5-0.8,0.9
			c-0.2,0.4-0.3,0.8-0.3,1.4c0,0.5,0.1,1,0.3,1.4c0.2,0.4,0.4,0.7,0.8,0.9c0.3,0.2,0.8,0.3,1.3,0.3c0.5,0,0.9-0.1,1.3-0.3
			s0.6-0.5,0.8-0.9c0.2-0.4,0.3-0.8,0.3-1.4c0-0.5-0.1-1-0.3-1.4S126.4,40.4,126,40.1z M126.4,43.5c-0.1,0.3-0.3,0.6-0.6,0.8
			s-0.6,0.3-1,0.3c-0.4,0-0.7-0.1-1-0.3s-0.5-0.4-0.6-0.7s-0.2-0.7-0.2-1.1c0-0.4,0.1-0.8,0.2-1.1c0.1-0.3,0.3-0.6,0.6-0.8
			c0.3-0.2,0.6-0.3,1-0.3c0.4,0,0.7,0.1,1,0.3s0.5,0.4,0.6,0.7c0.1,0.3,0.2,0.7,0.2,1.1C126.6,42.9,126.5,43.2,126.4,43.5z"/>
		<polygon class="st1" points="129.3,45 129.9,45 129.9,42.7 131.8,42.7 131.8,42.2 129.9,42.2 129.9,40.4 132.2,40.4 132.2,39.9 
			129.3,39.9 		"/>
		<polygon class="st1" points="138.8,42.3 137.4,39.9 136.9,39.9 138.5,42.8 138.5,45 139.1,45 139.1,42.8 140.7,39.9 140.1,39.9 		
			"/>
		<path class="st1" d="M145.8,40.1c-0.3-0.2-0.8-0.3-1.3-0.3c-0.5,0-0.9,0.1-1.3,0.3c-0.3,0.2-0.6,0.5-0.8,0.9
			c-0.2,0.4-0.3,0.8-0.3,1.4c0,0.5,0.1,1,0.3,1.4c0.2,0.4,0.4,0.7,0.8,0.9c0.3,0.2,0.8,0.3,1.3,0.3c0.5,0,0.9-0.1,1.3-0.3
			s0.6-0.5,0.8-0.9c0.2-0.4,0.3-0.8,0.3-1.4c0-0.5-0.1-1-0.3-1.4S146.2,40.4,145.8,40.1z M146.1,43.5c-0.1,0.3-0.3,0.6-0.6,0.8
			s-0.6,0.3-1,0.3c-0.4,0-0.7-0.1-1-0.3s-0.5-0.4-0.6-0.7s-0.2-0.7-0.2-1.1c0-0.4,0.1-0.8,0.2-1.1c0.1-0.3,0.3-0.6,0.6-0.8
			c0.3-0.2,0.6-0.3,1-0.3c0.4,0,0.7,0.1,1,0.3s0.5,0.4,0.6,0.7c0.1,0.3,0.2,0.7,0.2,1.1C146.3,42.9,146.2,43.2,146.1,43.5z"/>
		<path class="st1" d="M152.5,43.1c0,0.3,0,0.5-0.1,0.7c-0.1,0.2-0.2,0.3-0.3,0.5c-0.1,0.1-0.3,0.2-0.5,0.3
			c-0.2,0.1-0.3,0.1-0.5,0.1c-0.2,0-0.3,0-0.5-0.1c-0.2-0.1-0.3-0.1-0.5-0.3s-0.3-0.3-0.3-0.5c-0.1-0.2-0.1-0.4-0.1-0.7v-3.2l-0.5,0
			v3.2c0,0.4,0.1,0.7,0.3,1c0.2,0.3,0.4,0.5,0.7,0.7c0.3,0.2,0.6,0.2,1,0.2s0.7-0.1,1-0.2c0.3-0.2,0.5-0.4,0.7-0.7s0.3-0.6,0.3-1
			v-3.2h-0.5V43.1z"/>
		<path class="st1" d="M158.8,42.5c0.2-0.3,0.3-0.6,0.3-1c0-0.3,0-0.5-0.1-0.7c-0.1-0.2-0.2-0.4-0.4-0.5c-0.2-0.1-0.4-0.2-0.7-0.3
			c-0.1,0-0.1,0-0.2,0c-0.1,0-0.1,0-0.2,0h-1.9v5h0.5V43h1.6l0.9,1.9h0.6l-1-2.1C158.4,42.8,158.6,42.7,158.8,42.5z M156.1,42.6
			v-2.1h1.4c0,0,0.1,0,0.1,0c0.1,0,0.1,0,0.2,0c0.2,0,0.3,0.1,0.4,0.2c0.1,0.1,0.2,0.2,0.2,0.4s0.1,0.3,0.1,0.5s0,0.3-0.1,0.5
			c-0.1,0.1-0.1,0.3-0.2,0.4c-0.1,0.1-0.3,0.2-0.4,0.2c-0.1,0-0.1,0-0.2,0c-0.1,0-0.1,0-0.1,0H156.1z"/>
		<polygon class="st1" points="167.7,42.2 165,42.2 165,39.9 164.4,39.9 164.4,45 165,45 165,42.7 167.7,42.7 167.7,45 168.3,45 
			168.3,39.9 167.7,39.9 		"/>
		<polygon class="st1" points="170.8,45 173.9,45 173.9,44.5 171.3,44.5 171.3,42.6 173.5,42.6 173.5,42.2 171.3,42.2 171.3,40.4 
			173.9,40.4 173.9,39.9 170.8,39.9 		"/>
		<path class="st1" d="M177.7,39.9l-1.7,5h0.5l0.4-1.2h2.2l0.4,1.2h0.5l-1.7-5H177.7z M177.1,43.3l0.9-2.8l1,2.8H177.1z"/>
		<polygon class="st1" points="182.9,39.9 182.4,39.9 182.4,45 185.3,45 185.3,44.5 182.9,44.5 		"/>
		<polygon class="st1" points="186.3,40.4 188,40.4 188,45 188.5,45 188.5,40.4 190.3,40.4 190.3,39.9 186.3,39.9 		"/>
		<polygon class="st1" points="195.7,39.9 195.7,42.2 192.9,42.2 192.9,39.9 192.4,39.9 192.4,45 192.9,45 192.9,42.7 195.7,42.7 
			195.7,45 196.2,45 196.2,39.9 		"/>
	</g>
</g>
</svg>
